<svg width="76" height="76" viewBox="0 0 76 76" fill="none" xmlns="http://www.w3.org/2000/svg">
<path d="M33.6699 7.50001C35.5944 4.16668 40.4056 4.16667 42.3301 7.5L66.5788 49.5C68.5033 52.8333 66.0977 57 62.2487 57H13.7513C9.9023 57 7.49666 52.8333 9.42116 49.5L33.6699 7.50001Z" fill="#F4E8C1"/>
<path d="M40.4609 40.5625C41.5234 30.7812 42.0547 23.9531 42.0547 20.0781C42.0547 19.5 41.8359 19.1016 41.3984 18.8828C40.9609 18.6641 40.3203 18.5547 39.4766 18.5547C38.2891 18.5547 37.3359 18.7188 36.6172 19.0469C35.8984 19.3594 35.5391 19.8125 35.5391 20.4062C35.5391 21.5625 35.6797 23.5 35.9609 26.2188C36.2422 28.9219 36.6172 32.2812 37.0859 36.2969L37.5078 40L40.4609 40.5625ZM38.8906 49.7266C40.2188 49.7266 41.2188 49.4219 41.8906 48.8125C42.5781 48.1875 42.9219 47.3906 42.9219 46.4219C42.9219 45.875 42.7734 45.3672 42.4766 44.8984C42.1953 44.4141 41.75 44.0234 41.1406 43.7266C40.5469 43.4141 39.8047 43.2578 38.9141 43.2578C38.0703 43.2578 37.3516 43.4141 36.7578 43.7266C36.1797 44.0234 35.7422 44.4141 35.4453 44.8984C35.1641 45.3672 35.0234 45.875 35.0234 46.4219C35.0234 47.3594 35.3359 48.1484 35.9609 48.7891C36.5859 49.4141 37.5625 49.7266 38.8906 49.7266Z" fill="#001F54"/>
</svg>
